<svg width="40" height="40" viewBox="0 0 40 40" fill="none" xmlns="http://www.w3.org/2000/svg">
<g clip-path="url(#clip0)">
<path d="M36.2985 6.23512e-06C35.9046 6.23512e-06 35.4923 0.132314 35.1923 0.432314L34.5677 1.10616L34.2785 0.86616C34.2071 0.791606 34.1213 0.732274 34.0264 0.69174C33.9315 0.651207 33.8294 0.63031 33.7262 0.63031C33.6229 0.63031 33.5208 0.651207 33.4259 0.69174C33.3309 0.732274 33.2452 0.791606 33.1738 0.86616C33.0993 0.937537 33.04 1.02327 32.9994 1.11819C32.9589 1.21311 32.938 1.31525 32.938 1.41847C32.938 1.52168 32.9589 1.62383 32.9994 1.71875C33.04 1.81367 33.0993 1.8994 33.1738 1.97078L33.4138 2.26001L33.0292 2.64462L32.74 2.40308C32.6686 2.32853 32.5829 2.2692 32.488 2.22866C32.393 2.18813 32.2909 2.16723 32.1877 2.16723C32.0845 2.16723 31.9823 2.18813 31.8874 2.22866C31.7925 2.2692 31.7068 2.32853 31.6354 2.40308C31.5603 2.4745 31.5006 2.56042 31.4598 2.65563C31.419 2.75083 31.3979 2.85334 31.3979 2.95693C31.3979 3.06052 31.419 3.16303 31.4598 3.25823C31.5006 3.35344 31.5603 3.43936 31.6354 3.51078L31.8754 3.79847L31.5861 4.08616C31.3996 4.27082 31.2656 4.50186 31.198 4.7555C31.1304 5.00915 31.1316 5.27622 31.2015 5.52924L24.4708 12.26C23.0815 11.0446 20.98 9.61539 18.7015 9.61539C17.6908 9.61539 16.6523 9.92308 15.6246 10.6246C13.3446 12.1831 13.7815 14.5446 12.3554 15.9139C10.7554 17.4523 6.38153 16.2123 2.35538 20.24C-1.67077 24.2646 0.113841 29.8323 5.24 34.76C8.31384 37.9569 11.6215 39.8554 14.6631 39.8554C16.4954 39.8554 18.2446 39.16 19.76 37.6446C23.7861 33.6185 22.5462 29.2477 24.0861 27.6446C25.4554 26.2215 27.8631 26.7046 29.4231 24.4231C31.7108 21.08 29.5031 17.5446 27.74 15.5292L34.4708 8.79847C34.9785 8.9277 35.5154 8.81231 35.9138 8.41385L36.2015 8.12462L36.4908 8.36616C36.557 8.44085 36.6383 8.5008 36.7292 8.54214C36.82 8.58348 36.9186 8.60529 37.0185 8.60616C37.2351 8.6047 37.4423 8.51791 37.5954 8.36462C37.6699 8.29324 37.7293 8.20751 37.7698 8.11259C37.8103 8.01767 37.8312 7.91553 37.8312 7.81231C37.8312 7.7091 37.8103 7.60696 37.7698 7.51203C37.7293 7.41711 37.6699 7.33138 37.5954 7.26001L37.3554 6.97078L37.74 6.58616L38.0292 6.8277C38.0955 6.90239 38.1767 6.96234 38.2676 7.00368C38.3585 7.04502 38.4571 7.06683 38.5569 7.0677C38.7735 7.06623 38.9808 6.97945 39.1338 6.82616C39.2084 6.75478 39.2677 6.66905 39.3083 6.57413C39.3488 6.47921 39.3697 6.37707 39.3697 6.27385C39.3697 6.17064 39.3488 6.06849 39.3083 5.97357C39.2677 5.87865 39.2084 5.79292 39.1338 5.72154L38.8938 5.43231L39.5677 4.8077C39.7105 4.6661 39.8238 4.49763 39.9012 4.312C39.9785 4.12637 40.0184 3.92726 40.0184 3.72616C40.0184 3.52506 39.9785 3.32595 39.9012 3.14032C39.8238 2.95469 39.7105 2.78622 39.5677 2.64462L37.3538 0.430775C37.2163 0.291144 37.0519 0.180948 36.8704 0.106893C36.689 0.0328373 36.4944 -0.00352909 36.2985 6.23512e-06ZM36.2015 1.8277C36.32 1.8277 36.4477 1.83385 36.5385 1.92308C36.6252 2.01382 36.6735 2.1345 36.6735 2.26001C36.6735 2.38551 36.6252 2.50619 36.5385 2.59693L33.4615 5.67385C33.3722 5.76362 33.2513 5.81495 33.1246 5.81693C32.9984 5.81351 32.8783 5.76174 32.7892 5.67231C32.703 5.58165 32.6549 5.4613 32.6549 5.33616C32.6549 5.21102 32.703 5.09067 32.7892 5.00001L35.8661 1.92308C35.9554 1.83385 36.0846 1.82616 36.2015 1.82616V1.8277ZM37.74 3.36616C37.8585 3.36616 37.9861 3.37078 38.0769 3.46154C38.164 3.5521 38.2126 3.67285 38.2126 3.79847C38.2126 3.92409 38.164 4.04483 38.0769 4.13539L35 7.21231C34.9103 7.30154 34.7896 7.35278 34.6631 7.35539C34.5371 7.35238 34.417 7.30118 34.3277 7.21231C34.241 7.12157 34.1926 7.0009 34.1926 6.87539C34.1926 6.74988 34.241 6.62921 34.3277 6.53847L37.4046 3.46154C37.4938 3.37231 37.6231 3.36462 37.74 3.36462V3.36616ZM18.7015 11.7769C20.1785 11.7769 21.7385 12.78 22.9323 13.7969L17.7877 18.9415C17.6738 18.9292 17.5692 18.8923 17.4523 18.8923C16.4842 18.8956 15.5568 19.2816 14.8722 19.9661C14.1877 20.6506 13.8017 21.5781 13.7985 22.5462C13.8017 23.5142 14.1877 24.4417 14.8722 25.1262C15.5568 25.8108 16.4842 26.1968 17.4523 26.2C18.4204 26.1968 19.3479 25.8108 20.0324 25.1262C20.7169 24.4417 21.1029 23.5142 21.1061 22.5462C21.1061 22.4292 21.0692 22.3246 21.0585 22.2092L26.2492 17.0185C27.5846 18.5662 29.0923 21.0554 27.6446 23.1723C27.1738 23.8585 26.5815 24.1108 25.5292 24.4692C24.6031 24.7846 23.4446 25.1692 22.5 26.1523C21.4631 27.2308 21.2323 28.6492 20.9615 30.1431C20.62 32.0185 20.2369 34.1385 18.2215 36.1523C17.1631 37.2108 15.9969 37.7385 14.6631 37.7385C12.3292 37.7385 9.52923 36.1292 6.77846 33.2677C6.76333 33.2511 6.74741 33.2351 6.73076 33.22C3.8923 30.4954 2.28307 27.7077 2.25999 25.3846C2.24461 24.0292 2.77384 22.8539 3.84615 21.7785C5.86153 19.7631 7.98153 19.3785 9.85538 19.0385C11.3492 18.7677 12.7692 18.4892 13.8461 17.4523C14.8215 16.5169 15.2077 15.3862 15.5292 14.4708C15.8985 13.4215 16.1292 12.88 16.8277 12.4031C17.4246 11.9954 18.0431 11.7785 18.7015 11.7785V11.7769ZM8.55692 25.0462C8.43058 25.0489 8.31028 25.1008 8.22153 25.1908L7.25999 26.1539C7.17186 26.2439 7.12249 26.3648 7.12249 26.4908C7.12249 26.6167 7.17186 26.7377 7.25999 26.8277L13.1723 32.74C13.3538 32.92 13.6646 32.92 13.8461 32.74L14.8077 31.7785C14.8946 31.6882 14.9432 31.5677 14.9432 31.4423C14.9432 31.3169 14.8946 31.1965 14.8077 31.1062L8.89384 25.1923C8.80509 25.1024 8.6848 25.0505 8.55846 25.0477L8.55692 25.0462Z" fill="white"/>
</g>
<defs>
<clipPath id="clip0">
<rect width="40" height="40" fill="white"/>
</clipPath>
</defs>
</svg>
