<svg width="126" height="116" viewBox="0 0 126 116" fill="none" xmlns="http://www.w3.org/2000/svg">
<path d="M109.319 0.124207H125.185V12.9575H114.718L79.8919 46.9017L70.6094 37.9825L109.319 0.124207ZM59.3519 38.6242C61.0636 38.6242 62.6436 39.2659 64.0261 40.5492L77.1928 53.3825C78.3778 54.6659 79.1019 56.1417 79.1019 57.8742L78.4436 60.4409L52.1103 111.774C50.8594 114.02 48.5553 115.175 46.1853 115.175C43.8811 115.175 41.5111 114.02 40.3261 111.774L28.0811 88.0325L3.72276 76.4825C1.28693 75.1992 0.101929 72.9534 0.101929 70.7075C0.101929 68.4617 1.28693 66.2159 3.72276 64.9325L56.3894 39.2659C57.3111 38.6242 58.2986 38.6242 59.3519 38.6242ZM41.9061 56.7192L37.2978 61.0825L56.0603 79.37L60.5369 74.8784L41.9061 56.7192ZM32.6236 65.7667L27.9494 70.3225L46.5803 88.4817L51.2544 83.9259L32.6236 65.7667Z" fill="white"/>
</svg>
