<svg width="335" height="308" viewBox="0 0 335 308" fill="none" xmlns="http://www.w3.org/2000/svg">
<path d="M291.714 0.0391846H334.09V34.2892H306.132L213.116 124.88L188.324 101.077L291.714 0.0391846ZM158.256 102.789C162.828 102.789 167.048 104.502 170.741 107.927L205.907 142.177C209.072 145.602 211.006 149.54 211.006 154.164L209.248 161.014L138.915 298.014C135.574 304.008 129.42 307.09 123.09 307.09C116.936 307.09 110.606 304.008 107.441 298.014L74.7355 234.652L9.67721 203.827C3.17138 200.402 0.00637817 194.408 0.00637817 188.414C0.00637817 182.42 3.17138 176.427 9.67721 173.002L150.344 104.502C152.806 102.789 155.443 102.789 158.256 102.789ZM111.661 151.082L99.3522 162.727L149.465 211.533L161.421 199.545L111.661 151.082ZM86.868 175.228L74.3839 187.387L124.145 235.85L136.629 223.692L86.868 175.228Z" fill="white"/>
</svg>
