<svg width="46" height="46" viewBox="0 0 46 46" fill="none" xmlns="http://www.w3.org/2000/svg">
<g clip-path="url(#clip0)">
<path d="M12.151 4.30594C11.7141 4.23889 11.2684 4.34816 10.9121 4.60969C10.5557 4.87123 10.3179 5.26362 10.2508 5.70053C10.1838 6.13744 10.293 6.5831 10.5546 6.93945C10.8161 7.2958 11.2085 7.53366 11.6454 7.60071C12.9561 7.80184 14.1333 8.51542 14.9179 9.58448C15.7025 10.6535 16.0303 11.9905 15.8292 13.3012L13.6805 27.304C12.7704 33.2346 16.8147 38.7451 22.7453 39.6551C28.6759 40.5652 34.1864 36.5209 35.0964 30.5903L35.7284 26.4718C36.1653 26.5389 36.611 26.4296 36.9673 26.1681C37.3237 25.9065 37.5616 25.5141 37.6286 25.0772C37.6956 24.6403 37.5864 24.1947 37.3248 23.8383C37.0633 23.482 36.6709 23.2441 36.234 23.1771L26.3497 21.6603C25.9128 21.5933 25.4671 21.7025 25.1108 21.9641C24.7544 22.2256 24.5166 22.618 24.4495 23.0549C24.3825 23.4918 24.4917 23.9375 24.7533 24.2938C25.0148 24.6502 25.4072 24.888 25.8441 24.9551L25.3385 28.2498C25.2715 28.6868 25.0336 29.0791 24.6773 29.3407C24.3209 29.6022 23.8753 29.7115 23.4384 29.6444C23.0014 29.5774 22.6091 29.3395 22.3475 28.9832C22.086 28.6268 21.9767 28.1812 22.0438 27.7443L23.0549 21.1547C23.4918 21.2218 23.9375 21.1125 24.2939 20.851C24.6502 20.5894 24.8881 20.197 24.9551 19.7601C25.0222 19.3232 24.9129 18.8776 24.6514 18.5212C24.3898 18.1649 23.9974 17.927 23.5605 17.86L23.8133 16.2126C24.2502 16.2796 24.6959 16.1704 25.0522 15.9088C25.4086 15.6473 25.6464 15.2549 25.7135 14.818C25.7805 14.3811 25.6713 13.9354 25.4097 13.5791C25.1482 13.2227 24.7558 12.9848 24.3189 12.9178L24.4453 12.0941C24.6799 10.5649 24.2975 9.00513 23.3821 7.7579C22.4668 6.51067 21.0934 5.67815 19.5642 5.4435L12.151 4.30594Z" fill="white"/>
</g>
<defs>
<clipPath id="clip0">
<rect width="40" height="40" fill="white" transform="translate(6.06702) rotate(8.724)"/>
</clipPath>
</defs>
</svg>
