<svg width="40" height="40" viewBox="0 0 40 40" fill="none" xmlns="http://www.w3.org/2000/svg">
<path d="M33.985 6.36749L20.1562 12.93C19.7404 12.6506 19.251 12.5009 18.75 12.5C18.087 12.5 17.4511 12.7634 16.9822 13.2322C16.5134 13.7011 16.25 14.337 16.25 15C16.25 15.663 16.5134 16.2989 16.9822 16.7678C17.4511 17.2366 18.087 17.5 18.75 17.5C20.0625 17.5 21.1525 16.4837 21.25 15.195L28.8288 11.6012C31.0975 12.5587 32.5 13.8087 32.5 15C32.5 17.3587 27.1537 20 20 20C12.8463 20 7.5 17.3587 7.5 15C7.5 12.6412 12.8463 9.99999 20 9.99999C20.215 9.99999 20.41 9.99499 20.625 9.99999L25.0387 7.92999C23.3741 7.64641 21.6886 7.50258 20 7.49999C11.45 7.49999 5 10.7225 5 15V27.5C5 28.735 5.55625 29.8687 6.40625 30.7812C7.25625 31.6937 8.4125 32.4312 9.76625 33.0475C12.47 34.2775 16.05 35 20 35C23.95 35 27.5287 34.2775 30.235 33.0462C31.5875 32.4312 32.7437 31.6937 33.5938 30.7812C34.4438 29.8687 35 28.735 35 27.5V15C35 13.1537 33.7787 11.5125 31.7188 10.2337L35.0387 8.63374L33.985 6.36749ZM7.5 19.2575C8.77 20.215 10.4738 21.0012 12.5 21.5625V31.445C11.875 31.25 11.3038 31.02 10.7812 30.7812C9.64875 30.2637 8.78375 29.6437 8.2425 29.0625C7.7 28.4812 7.5 27.9937 7.5 27.5V19.2575ZM32.5 19.2575V27.5C32.5 27.9937 32.3 28.4812 31.7575 29.0625C31.2162 29.6437 30.3512 30.2625 29.2188 30.7812C28.6963 31.02 28.125 31.25 27.5 31.445V21.5625C29.5263 21 31.23 20.215 32.5 19.2575ZM15 22.1087C16.6531 22.3762 18.3254 22.5071 20 22.5C21.6746 22.5071 23.3469 22.3762 25 22.1087V32.0312C23.4625 32.3187 21.7775 32.5 20 32.5C18.2225 32.5 16.5375 32.3187 15 32.0312V22.1087Z" fill="white"/>
</svg>
