<?xml version="1.0" encoding="UTF-8"?>
<svg xmlns="http://www.w3.org/2000/svg" xmlns:xlink="http://www.w3.org/1999/xlink" viewBox="0 0 96 96" width="96px" height="96px">
<g id="surface90638233">
<path style=" stroke:none;fill-rule:nonzero;fill:rgb(100%,100%,100%);fill-opacity:1;" d="M 68 12 L 28 12 C 19.164062 12 12 19.164062 12 28 L 12 68 C 12 76.835938 19.164062 84 28 84 L 68 84 C 76.835938 84 84 76.835938 84 68 L 84 28 C 84 19.164062 76.835938 12 68 12 Z M 68.199219 38.054688 C 68.199219 38.398438 68.199219 38.738281 68.199219 39.429688 C 68.199219 52.457031 58.257812 67.542969 40.085938 67.542969 C 34.601562 67.542969 29.457031 65.828125 25 63.089844 C 25.683594 63.089844 26.714844 63.089844 27.398438 63.089844 C 31.855469 63.089844 36.316406 61.371094 39.742188 58.972656 C 35.289062 58.972656 31.859375 55.886719 30.488281 52.117188 C 31.171875 52.117188 31.859375 52.460938 32.203125 52.460938 C 33.230469 52.460938 33.921875 52.460938 34.949219 52.117188 C 30.492188 51.089844 27.0625 47.316406 27.0625 42.515625 C 28.4375 43.199219 29.808594 43.542969 31.519531 43.886719 C 28.777344 41.488281 27.0625 38.742188 27.0625 35.316406 C 27.0625 33.601562 27.40625 31.886719 28.4375 30.515625 C 33.234375 36.34375 40.4375 40.460938 48.664062 40.800781 C 48.664062 40.117188 48.320312 39.429688 48.320312 38.398438 C 48.320312 32.914062 52.777344 28.457031 58.265625 28.457031 C 61.007812 28.457031 63.746094 29.484375 65.464844 31.539062 C 67.863281 31.195312 69.921875 30.167969 71.636719 29.140625 C 70.953125 31.539062 69.234375 33.257812 67.179688 34.625 C 69.234375 34.28125 70.953125 33.941406 73.007812 32.90625 C 71.628906 34.972656 69.914062 36.683594 68.199219 38.054688 Z M 68.199219 38.054688 "/>
</g>
</svg>
